<svg width="327" height="60" viewBox="0 0 327 60" fill="none" xmlns="http://www.w3.org/2000/svg">
<path fill-rule="evenodd" clip-rule="evenodd" d="M327 0C315.252 42.4188 264.696 52.5112 178.39 27.662C140.644 16.794 102.418 21.3968 71.082 25.1699C30.3992 30.0685 1.3298 33.5687 3.05176e-05 0H327Z" fill="#FFF7FB"/>
<g filter="url(#filter0_i)">
<path fill-rule="evenodd" clip-rule="evenodd" d="M269.117 37.7769C270.05 35.4434 271.356 29.9825 269.119 26.8077C266.322 22.8391 265.227 22.3146 264.323 23.2611C263.828 23.7796 263.504 25.2026 263.201 26.5354C262.951 27.6353 262.714 28.6739 262.407 29.0918C262.286 29.257 262.127 29.4288 261.959 29.6108C261.188 30.447 260.217 31.4998 261.719 33.1317C260.717 32.9293 258.621 32.9846 258.26 34.8257C257.692 34.8965 256.775 35.3145 257.647 36.4207C257.287 36.6065 256.6 37.1193 256.729 37.6845C256.858 38.2496 257.33 38.5584 257.549 38.6421L256.906 39.4727C256.771 39.6364 256.336 39.9439 255.675 39.8644C255.559 39.8504 255.422 39.8285 255.272 39.8046C254.362 39.6595 252.997 39.4417 253.061 40.4822C253.123 41.4899 253.659 41.2643 254.492 40.9138C254.66 40.8429 254.841 40.7669 255.032 40.6949C255.196 40.3629 255.935 39.9202 257.582 40.8056C257.54 41.2913 257.821 42.2086 259.287 41.9924C259.39 42.5692 259.912 43.6284 261.18 43.251C262.449 42.8736 265.636 40.9326 267.071 40.0092C266.595 40.3458 265.71 41.0857 265.838 41.4434L265.794 41.4841C266.122 41.7184 266.965 40.8368 267.345 40.3667C266.333 41.7368 264.193 44.7865 263.738 46.0241C263.283 47.2618 264.313 47.8447 264.885 47.9815C264.58 49.425 265.483 49.7601 265.972 49.7472C266.76 51.438 266.272 52.1456 265.929 52.2881C265.845 52.4737 265.758 52.6485 265.677 52.8116C265.275 53.6177 265.016 54.1366 266.023 54.2594C267.062 54.3861 266.926 53.0163 266.836 52.1034C266.821 51.9535 266.808 51.8159 266.801 51.6992C266.761 51.0377 267.095 50.6241 267.268 50.4999L268.14 49.911C268.21 50.1346 268.491 50.6223 269.05 50.7842C269.609 50.9462 270.165 50.2948 270.373 49.9489C271.429 50.8817 271.904 49.996 272.009 49.4365C273.877 49.1886 274.06 47.1097 273.917 46.1013C275.463 47.6929 276.577 46.7916 277.462 46.0757C277.655 45.9199 277.837 45.7729 278.01 45.6623C278.447 45.3824 279.503 45.2104 280.621 45.0283C281.976 44.8075 283.422 44.5719 283.972 44.1113C284.976 43.2705 284.516 42.1508 280.706 39.1317C277.658 36.7164 272.104 37.6834 269.707 38.4688C270.482 37.9736 270.531 37.6144 270.458 37.4966C272.042 37.4218 272.726 36.7514 272.87 36.4256C272.74 36.5716 272.287 36.924 271.517 37.1651C270.806 37.3875 270.481 37.3101 270.386 37.2294L270.42 37.1976C270.338 37.1304 270.246 36.8085 270.534 36.0579C270.822 35.3073 271.203 34.8787 271.358 34.7582C271.022 34.8814 270.309 35.5203 270.138 37.0899C270.024 37.0108 269.661 37.0374 269.117 37.7769Z" fill="#FFA4D5" fill-opacity="0.42"/>
</g>
<defs>
<filter id="filter0_i" x="253.059" y="22.855" width="33.371" height="33.4126" filterUnits="userSpaceOnUse" color-interpolation-filters="sRGB">
<feFlood flood-opacity="0" result="BackgroundImageFix"/>
<feBlend mode="normal" in="SourceGraphic" in2="BackgroundImageFix" result="shape"/>
<feColorMatrix in="SourceAlpha" type="matrix" values="0 0 0 0 0 0 0 0 0 0 0 0 0 0 0 0 0 0 127 0" result="hardAlpha"/>
<feOffset dx="2" dy="2"/>
<feGaussianBlur stdDeviation="2"/>
<feComposite in2="hardAlpha" operator="arithmetic" k2="-1" k3="1"/>
<feColorMatrix type="matrix" values="0 0 0 0 0.929167 0 0 0 0 0.747205 0 0 0 0 0.842974 0 0 0 1 0"/>
<feBlend mode="normal" in2="shape" result="effect1_innerShadow"/>
</filter>
</defs>
</svg>
