<svg width="31" height="30" viewBox="0 0 31 30" fill="none" xmlns="http://www.w3.org/2000/svg">
<g filter="url(#filter0_i)">
<path d="M14.2055 12.903C14.1526 10.4389 13.2402 5.00615 10.0136 2.98788C5.98031 0.465044 4.79467 0.40767 4.34322 1.60703C4.09589 2.2641 4.34844 3.67353 4.58497 4.99361C4.78019 6.08308 4.9645 7.11169 4.84792 7.60633C4.80184 7.80186 4.72494 8.01736 4.64345 8.24574C4.269 9.29513 3.79758 10.6163 5.77321 11.5196C4.79374 11.7181 2.9294 12.5655 3.30774 14.3673C2.8243 14.6471 2.15913 15.3739 3.36603 16.0421C3.1136 16.3468 2.69167 17.0716 3.02339 17.5335C3.3551 17.9955 3.89778 18.0949 4.12766 18.0869L3.86639 19.0824C3.80757 19.2817 3.53367 19.7253 2.90864 19.9048C2.79843 19.9365 2.66666 19.9689 2.5231 20.0042C1.64887 20.2193 0.337175 20.5419 0.792675 21.458C1.23377 22.3452 1.62979 21.9373 2.245 21.3036C2.36943 21.1755 2.50282 21.0381 2.64737 20.9003C2.66764 20.5379 3.16341 19.8565 4.98437 20.0299C5.13173 20.485 5.73553 21.2071 6.97187 20.4539C7.28457 20.9362 8.15925 21.6948 9.15641 20.871C10.1536 20.0472 12.2795 17.0799 13.2178 15.6992C12.918 16.1848 12.4043 17.1904 12.6563 17.465L12.633 17.5177C13.0176 17.6047 13.4388 16.4872 13.6013 15.9175C13.2138 17.5413 12.4547 21.1118 12.5182 22.4037C12.5818 23.6955 13.7318 23.8303 14.2988 23.7362C14.5757 25.1572 15.5161 25.1166 15.9516 24.9187C17.307 26.147 17.1378 26.9725 16.8838 27.2317C16.8794 27.4314 16.8679 27.6225 16.8571 27.8008C16.8036 28.6824 16.7692 29.2498 17.7219 28.9777C18.7056 28.6968 18.0599 27.5103 17.6295 26.7196C17.5588 26.5897 17.494 26.4705 17.4431 26.3678C17.1545 25.785 17.2975 25.2837 17.4051 25.1059L17.9644 24.242C18.1134 24.4172 18.5526 24.751 19.1174 24.6847C19.6823 24.6184 19.9333 23.8182 19.9883 23.4263C21.2954 23.8675 21.3839 22.8863 21.2648 22.3406C22.8508 21.4056 22.2202 19.4573 21.7066 18.5999C23.7056 19.4505 24.3638 18.2118 24.8866 17.2279C25.0004 17.0137 25.1077 16.8117 25.2211 16.6459C25.508 16.2263 26.392 15.6692 27.3284 15.0791C28.463 14.3641 29.6744 13.6007 29.9931 12.9751C30.5748 11.8332 29.7333 10.996 25.1511 9.71697C21.4854 8.69373 16.8572 11.6814 15.0012 13.3032C15.5087 12.5609 15.4152 12.2177 15.305 12.1389C16.7019 11.4684 17.0608 10.6023 17.0657 10.253C17.0044 10.4346 16.7317 10.9254 16.131 11.4363C15.5767 11.9078 15.2546 11.9614 15.1383 11.9246L15.1564 11.8835C15.0567 11.8541 14.8506 11.5983 14.8231 10.8101C14.7957 10.022 14.9745 9.48968 15.0673 9.32206C14.8125 9.56108 14.4147 10.4101 14.8608 11.8938C14.7284 11.8655 14.4118 12.0278 14.2055 12.903Z" fill="#FFA4D5" fill-opacity="0.42"/>
</g>
<defs>
<filter id="filter0_i" x="0.699219" y="0.848389" width="32.4562" height="32.1979" filterUnits="userSpaceOnUse" color-interpolation-filters="sRGB">
<feFlood flood-opacity="0" result="BackgroundImageFix"/>
<feBlend mode="normal" in="SourceGraphic" in2="BackgroundImageFix" result="shape"/>
<feColorMatrix in="SourceAlpha" type="matrix" values="0 0 0 0 0 0 0 0 0 0 0 0 0 0 0 0 0 0 127 0" result="hardAlpha"/>
<feOffset dx="3" dy="6"/>
<feGaussianBlur stdDeviation="2"/>
<feComposite in2="hardAlpha" operator="arithmetic" k2="-1" k3="1"/>
<feColorMatrix type="matrix" values="0 0 0 0 0.929167 0 0 0 0 0.747205 0 0 0 0 0.842974 0 0 0 1 0"/>
<feBlend mode="normal" in2="shape" result="effect1_innerShadow"/>
</filter>
</defs>
</svg>
