<svg width="57" height="65" viewBox="0 0 57 65" fill="none" xmlns="http://www.w3.org/2000/svg">
<path fill-rule="evenodd" clip-rule="evenodd" d="M36.1561 61.9601C35.7217 59.0652 35.5046 56.2393 35.8418 55.1126C35.9709 54.6812 36.0979 54.2015 36.2352 53.6831C37.0923 50.446 38.3487 45.7003 43.0045 41.799C44.7455 40.3401 46.3251 39.1716 47.7109 38.1464C50.6245 35.991 52.6818 34.4691 53.5828 32.2138C54.9123 28.8859 55.1313 23.885 53.3967 16.3485C50.131 16.9488 42.6354 19.803 38.7778 26.4174C38.5331 26.9756 38.1425 28.7296 38.5374 31.2796C39.0309 34.4672 39.5165 40.3523 38.1128 44.1175C36.9898 47.1296 36.0712 49.8736 35.7524 50.869C35.3658 51.7331 34.492 52.9942 34.0893 51.1266C34.0677 51.0264 34.0431 50.9137 34.016 50.7893C33.4102 48.0122 31.5308 39.3952 33.22 34.5155C33.6793 33.1887 34.3118 31.739 34.9718 30.2264C36.8476 25.9268 38.945 21.1195 37.9158 17.1847C36.5245 11.8655 31.2607 4.44971 26.2151 2.10894C23.6019 4.78419 18.4031 12.1456 18.5133 20.1891C18.6602 21.4436 19.7142 24.8282 22.7542 28.331C26.5543 32.7095 27.782 34.2223 28.8514 37.4626C29.7069 40.0548 31.5449 47.8309 32.2876 51.4056C32.3559 52.1519 32.2852 53.2224 30.9018 51.6202C30.5577 51.2217 30.1419 50.7951 29.6806 50.3216C27.8228 48.4153 25.2258 45.7505 23.5984 41.1143C22.8208 38.8988 22.3323 36.8049 21.8902 34.91C21.1774 31.8546 20.5853 29.3166 19.0964 27.6202C16.684 24.8717 11.0411 22.3396 3.82287 22.4639C3.56301 25.6735 3.64988 33.0774 6.07622 37.0158C7.6989 39.6497 10.556 40.5488 13.7821 41.5642C16.586 42.4465 19.6686 43.4167 22.462 45.6895C22.7125 45.8933 22.9612 46.095 23.2078 46.2949C28.5173 50.5999 32.8898 54.1451 34.2952 62.3754L36.1561 61.9601Z" fill="#E2E2E2"/>
</svg>
