<svg width="73" height="91" viewBox="0 0 73 91" fill="none" xmlns="http://www.w3.org/2000/svg">
<path fill-rule="evenodd" clip-rule="evenodd" d="M72.4724 90.862C72.2613 90.6943 72.0505 90.5255 71.84 90.3557C67.4773 86.9703 57.9974 79.0721 54.9798 74.562C54.2469 73.9338 53.6448 71.3001 57.0995 65.7914C61.4179 58.9056 57.0329 50.3846 54.8808 47.0603C51.4081 49.6316 45.1452 57.2547 47.8748 67.177C44.6194 63.0302 37.7177 53.7266 36.1537 49.6858C40.6107 44.3366 47.7241 31.6694 40.5219 23.7942C36.7446 25.5958 29.6617 32.0814 31.5484 43.6113C28.5361 39.226 22.1346 29.0134 20.6264 23.2451C21.7618 17.2524 21.1856 4.21358 9.79761 -0.000244141C6.95335 4.97447 4.61858 16.9019 18.0336 24.8136C18.9475 27.1228 21.1294 32.1463 22.5457 33.7673C18.5109 30.4319 8.35303 25.4478 0 32.1947C3.17829 35.813 12.1901 42.1726 22.811 38.6643C23.4322 38.38 25.2924 38.7941 27.7639 42.7251C30.8532 47.6387 36.9046 57.0334 38.8023 59.4923C34.5166 56.6354 24.2759 52.7547 17.5987 60.0874C21.3247 64.2369 31.1729 70.9374 40.7573 64.5433C42.1962 65.1757 45.5346 67.048 47.3767 69.4778C47.4398 69.561 47.5186 69.6664 47.6132 69.7931C49.2916 72.0394 55.9558 80.9585 68.4374 90.862H72.4724Z" fill="#E2E2E2"/>
</svg>
