<svg width="156" height="185" viewBox="0 0 156 185" fill="none" xmlns="http://www.w3.org/2000/svg">
<g filter="url(#filter0_i)">
<path d="M76.0048 18.0808C74.9664 16.3111 72.0985 12.7322 68.9339 12.5744C64.9782 12.3773 64.0931 12.8167 64.2516 13.8718C64.3385 14.4498 65.094 15.3718 65.8017 16.2355C66.3857 16.9482 66.9371 17.6211 67.0531 18.028C67.099 18.1888 67.1305 18.3767 67.164 18.5758C67.3176 19.4906 67.5111 20.6422 69.3138 20.4972C68.6823 21.0389 67.671 22.4115 68.6772 23.5677C68.4393 23.9673 68.2507 24.7656 69.3992 24.7615C69.3394 25.0854 69.3268 25.7836 69.7554 25.9847C70.184 26.1859 70.6188 26.038 70.7827 25.9389L70.9967 26.7685C71.0349 26.9373 71.0158 27.3709 70.6343 27.755C70.567 27.8228 70.4844 27.8998 70.3944 27.9838C69.8461 28.4948 69.0236 29.2617 69.7264 29.7428C70.4071 30.2087 70.5294 29.7514 70.7195 29.0412C70.758 28.8975 70.7992 28.7435 70.8483 28.5847C70.716 28.3131 70.7999 27.6165 72.1939 27.0036C72.4858 27.2747 73.2177 27.5545 73.8108 26.5053C74.2338 26.729 75.1775 26.9255 75.568 25.922C75.9586 24.9185 76.2998 21.8987 76.4216 20.5143C76.4007 20.9868 76.435 21.92 76.726 22.0244L76.7305 22.0724C77.0454 21.9796 76.898 20.9963 76.785 20.5163C77.1623 21.8539 78.0594 24.7574 78.6299 25.6707C79.2003 26.584 80.0909 26.2153 80.465 25.9168C81.2429 26.8374 81.91 26.4263 82.1463 26.1056C83.63 26.4485 83.842 27.1172 83.7626 27.4088C83.8404 27.5556 83.9096 27.6993 83.9741 27.8333C84.293 28.4958 84.4983 28.9223 85.0803 28.3379C85.6814 27.7344 84.7306 27.134 84.0968 26.7338C83.9927 26.6681 83.8972 26.6078 83.8185 26.5538C83.3722 26.2473 83.2728 25.8248 83.2788 25.6519L83.3348 24.7969C83.5142 24.8638 83.969 24.9282 84.3527 24.6508C84.7363 24.3734 84.5941 23.6898 84.475 23.3827C85.6042 23.173 85.2704 22.4238 84.9623 22.0754C85.7358 20.7522 84.4867 19.5917 83.7655 19.1769C85.5637 18.984 85.5395 17.8165 85.5203 16.8891C85.5161 16.6872 85.5122 16.4968 85.5273 16.3302C85.5655 15.9089 85.9821 15.1451 86.4233 14.3362C86.9579 13.356 87.5287 12.3094 87.5065 11.7253C87.466 10.6592 86.5145 10.3921 82.6646 11.3219C79.5846 12.0657 77.4327 16.1157 76.7417 18.0478C76.8094 17.3022 76.6022 17.0907 76.4901 17.0781C77.2334 16.0239 77.1428 15.2486 77.0047 14.9927C77.0338 15.1495 77.0347 15.617 76.8054 16.2322C76.5964 16.7928 76.3867 16.9653 76.2857 16.9891L76.2823 16.9539C76.1979 16.9729 75.9442 16.8706 75.6045 16.3088C75.2647 15.747 75.1786 15.2876 75.178 15.1281C75.0899 15.4052 75.1452 16.1838 76.0717 17.0813C75.9639 17.1145 75.7996 17.3609 76.0048 18.0808Z" fill="#E5E2E2"/>
</g>
<g filter="url(#filter1_d)">
<path fill-rule="evenodd" clip-rule="evenodd" d="M100.04 163.247C94.5007 154.258 85.1551 138.918 82.2009 133.399C81.5668 132.215 80.9502 131.126 80.3708 130.104L80.3707 130.103C77.2251 124.551 75.1789 120.939 77.4042 114.41C79.8091 107.353 80.6769 106.926 83.9868 105.298L83.987 105.298L83.9882 105.297C84.3048 105.142 84.6438 104.975 85.0086 104.79C89.1882 102.676 93.8943 100.165 91.6917 95.042C90.7324 92.8108 89.5356 91.4596 88.5854 90.3867C87.3539 88.9962 86.5365 88.0734 87.1873 86.3088C86.7922 86.8797 85.1663 88.1156 81.8231 88.4925C77.6442 88.9635 75.2418 90.1532 73.9246 92.7866C72.6075 95.4201 73.7908 98.6388 75.3688 102.382C76.7493 105.658 76.6449 106.119 76.1116 108.474L76.1114 108.474L76.1113 108.475C76.0351 108.811 75.9502 109.186 75.8596 109.614C75.1344 113.035 74.2442 117.607 74.5399 118.822C72.5562 114.904 68.3062 106.254 67.1755 102.995C67.5606 99.7617 68.6865 92.4517 70.1092 89.0816C71.2151 86.4621 72.0477 84.4285 72.5081 83.2869C72.9512 83.1901 73.3811 82.9987 73.7673 82.7084C75.2042 81.6282 75.4934 79.5878 74.4133 78.1509C73.3331 76.714 71.2927 76.4248 69.8558 77.505C68.419 78.5851 68.1298 80.6256 69.2099 82.0624C69.3295 82.2215 69.4609 82.3666 69.6019 82.4973L67.3449 90.338L65.4003 98.9892C63.6797 95.4212 60.1597 87.6871 59.8448 85.2946C59.451 82.304 60.0131 75.1028 65.4103 72.689C69.7279 70.7579 73.4831 71.2764 74.821 71.777C76.4551 72.1235 80.3421 72.1047 82.8176 69.2578C85.7868 65.8431 85.5741 64.253 85.2042 61.4875L85.2037 61.4844C85.1883 61.3689 85.1726 61.2514 85.1568 61.1316L85.1264 60.9014C84.7346 57.9352 84.2176 54.0215 85.9498 52.319C85.1819 52.7593 83.0276 53.3654 80.5537 52.2672C77.4613 50.8944 72.9213 48.9665 68.6428 51.7719C64.3642 54.5774 64.2967 59.1472 64.6561 65.6556C62.5929 69.1238 58.4593 77.0925 58.4314 81.2217C56.4923 75.627 52.7131 63.0893 53.11 57.6967C52.9019 56.9631 53.3218 54.5796 56.6662 50.9153C60.8467 46.3348 62.0991 40.8743 61.2118 38.0493C60.3244 35.2243 57.8579 31.9431 52.1664 29.8538C46.4749 27.7645 44.9616 26.8479 44.3043 24.8771C44.4354 26.1479 43.5918 29.5209 39.1683 32.8462C33.6389 37.0028 33.0778 41.7382 33.6691 44.1695C34.2605 46.6007 36.2334 50.0475 39.6874 52.1755C40.3387 52.5767 41.0298 52.9627 41.7331 53.3555C44.7595 55.0457 48.0119 56.8621 49.2921 60.5668C50.5542 64.2192 51.5706 67.8921 51.9211 69.2719C50.1552 67.5114 46.3291 64.1094 44.1303 63.501C44.1348 62.8133 43.9222 62.1187 43.4771 61.5266C42.3969 60.0897 40.3565 59.8005 38.9196 60.8807C37.4827 61.9608 37.1935 64.0012 38.2737 65.4381C39.3538 66.875 41.3942 67.1642 42.8311 66.084C42.8949 66.0361 42.9564 65.9863 43.0156 65.9347C46.2368 67.2437 52.0627 70.4787 53.4984 74.6594C53.7858 75.4963 54.1024 76.4281 54.4368 77.4124C56.3204 82.957 58.7712 90.1707 59.7766 91.5082C58.5706 90.3607 55.1123 87.6607 50.9276 86.0409C46.7429 84.4211 42.8904 80.1003 41.4873 78.1423C40.8077 76.8729 38.7445 74.3293 35.928 74.3103C32.8202 74.2893 31.2502 75.6733 29.5436 77.1776L29.5434 77.1778L29.5431 77.178C29.3166 77.3777 29.0877 77.5795 28.8524 77.7805C28.3133 78.2409 27.7742 78.7605 27.2371 79.2783C25.7735 80.689 24.3241 82.086 22.9281 82.2339C23.7833 82.8235 25.7635 84.4161 26.8421 86.0702C27.0914 86.4525 27.3631 86.9583 27.6677 87.5253L27.6678 87.5256C29.0107 90.0255 30.9924 93.7147 34.5059 93.2501C36.6139 92.9714 38.4783 91.6476 40.272 90.3742C42.1462 89.0435 43.9431 87.7677 45.8598 87.7964C49.6108 87.8524 59.5793 91.2457 61.8805 96.4998L65.727 104.906C63.6763 104.188 59.2196 102.608 57.7984 102.033C56.0218 101.315 53.9497 99.3804 51.8118 97.0847C49.6739 94.7889 47.7987 93.939 45.1657 95.9184C44.0788 96.7354 43.1824 97.7592 42.3518 98.7081C41.1701 100.058 40.1214 101.256 38.8461 101.491C39.219 101.621 40.2212 102.223 41.2473 103.588C41.5452 103.985 41.8467 104.489 42.1695 105.03L42.1696 105.03C43.2361 106.815 44.535 108.989 46.7072 108.933C48.9515 108.875 49.6437 108.304 50.8849 107.28C51.2087 107.013 51.5699 106.716 52.0057 106.388C54.1121 104.804 56.6459 104.338 59.0806 104.561C61.5154 104.785 65.7924 106.089 68.1596 110.883C70.5269 115.677 77.7276 129.367 81.0814 135.473C83.5526 139.972 92.8707 155.378 98.2665 164.237L100.04 163.247Z" fill="#CBCBCB"/>
</g>
<path fill-rule="evenodd" clip-rule="evenodd" d="M109.148 158.16C108.036 153.423 106.462 148.386 105.202 146.875C104.795 146.386 104.363 145.834 103.897 145.236C100.985 141.508 96.7162 136.043 88.5014 133.562C85.4295 132.635 82.7287 131.995 80.3591 131.433C75.3772 130.253 71.8595 129.419 69.4362 126.991C65.8602 123.407 62.7971 117.034 60.8625 106.281C65.4375 105.246 76.759 104.788 85.4445 111.236C86.0725 111.825 87.5545 113.886 88.4585 117.418C89.5886 121.832 92.2279 129.745 96.1432 133.856C99.2754 137.144 101.993 140.198 102.96 141.313C103.943 142.221 105.778 143.373 105.264 140.724C105.236 140.582 105.205 140.422 105.171 140.245C104.415 136.301 102.068 124.065 97.1628 118.666C95.829 117.198 94.2019 115.666 92.5044 114.068C87.6789 109.526 82.2836 104.448 81.4341 98.7652C80.2856 91.0835 83.0018 78.5269 88.2545 72.6831C93.1351 74.7058 103.978 81.3783 108.304 91.8867C108.81 93.5976 109.322 98.5792 107.32 104.818C104.817 112.616 104.063 115.263 104.474 120.066C104.804 123.908 106.737 135.029 107.759 140.085C108.085 141.092 108.771 142.443 109.678 139.594C109.903 138.885 110.206 138.1 110.542 137.229C111.896 133.72 113.789 128.816 113.326 121.89C113.105 118.581 112.576 115.59 112.097 112.883C111.326 108.518 110.684 104.893 111.676 101.862C113.282 96.952 119.204 90.5279 128.648 86.6786C130.769 90.703 134.77 100.368 133.807 106.831C133.163 111.154 129.952 113.909 126.326 117.02C123.174 119.724 119.71 122.697 117.344 127.201C117.132 127.605 116.921 128.005 116.712 128.402C112.034 137.273 108.214 144.518 111.593 156.795L109.148 158.16Z" fill="#E2E2E2"/>
<defs>
<filter id="filter0_i" x="64.2344" y="10.7543" width="23.2728" height="23.1775" filterUnits="userSpaceOnUse" color-interpolation-filters="sRGB">
<feFlood flood-opacity="0" result="BackgroundImageFix"/>
<feBlend mode="normal" in="SourceGraphic" in2="BackgroundImageFix" result="shape"/>
<feColorMatrix in="SourceAlpha" type="matrix" values="0 0 0 0 0 0 0 0 0 0 0 0 0 0 0 0 0 0 127 0" result="hardAlpha"/>
<feOffset dy="4"/>
<feGaussianBlur stdDeviation="4"/>
<feComposite in2="hardAlpha" operator="arithmetic" k2="-1" k3="1"/>
<feColorMatrix type="matrix" values="0 0 0 0 0 0 0 0 0 0 0 0 0 0 0 0 0 0 0.25 0"/>
<feBlend mode="normal" in2="shape" result="effect1_innerShadow"/>
</filter>
<filter id="filter1_d" x="0.59375" y="13.6724" width="140.915" height="171.146" filterUnits="userSpaceOnUse" color-interpolation-filters="sRGB">
<feFlood flood-opacity="0" result="BackgroundImageFix"/>
<feColorMatrix in="SourceAlpha" type="matrix" values="0 0 0 0 0 0 0 0 0 0 0 0 0 0 0 0 0 0 127 0" result="hardAlpha"/>
<feOffset dx="1" dy="4"/>
<feGaussianBlur stdDeviation="2"/>
<feColorMatrix type="matrix" values="0 0 0 0 0 0 0 0 0 0.443981 0 0 0 0 0.570833 0 0 0 0.12 0"/>
<feBlend mode="normal" in2="BackgroundImageFix" result="effect1_dropShadow"/>
<feBlend mode="normal" in="SourceGraphic" in2="effect1_dropShadow" result="shape"/>
</filter>
</defs>
</svg>
