<svg width="36" height="41" viewBox="0 0 36 41" fill="none" xmlns="http://www.w3.org/2000/svg">
<path fill-rule="evenodd" clip-rule="evenodd" d="M11.6388 39.6885C12.0194 37.833 12.2542 36.034 12.0769 35.2926C12.0077 35.003 11.9416 34.6815 11.8702 34.3341C11.4244 32.1646 10.7709 28.9842 7.84127 26.2352C6.74575 25.2072 5.74607 24.3769 4.869 23.6485C3.02501 22.1171 1.72299 21.0357 1.21174 19.513C0.45732 17.2661 0.498323 13.9557 1.92356 9.04333C4.05773 9.56095 8.9015 11.7239 11.2033 16.2349C11.3442 16.6126 11.537 17.7854 11.1816 19.4546C10.7373 21.5412 10.1983 25.4094 10.9854 27.9478C11.6152 29.9785 12.1199 31.8246 12.2935 32.4938C12.5167 33.0787 13.0469 33.9439 13.3822 32.7255C13.4001 32.6602 13.4206 32.5867 13.4431 32.5055C13.9462 30.6942 15.5071 25.0737 14.5728 21.7888C14.3187 20.8956 13.9548 19.9148 13.5752 18.8915C12.4961 15.9826 11.2895 12.7303 12.1152 10.1701C13.2314 6.7093 16.9826 2.00769 20.4013 0.649262C22.0276 2.51285 25.1874 7.56688 24.8161 12.8743C24.6725 13.6972 23.8509 15.8931 21.7134 18.0933C19.0415 20.8436 18.1746 21.797 17.3482 23.897C16.687 25.5771 15.1847 30.6437 14.5615 32.9767C14.4888 33.4669 14.4957 34.1765 15.4687 33.1698C15.7107 32.9195 16.0011 32.6532 16.3233 32.3577C17.6209 31.1678 19.4347 29.5045 20.6814 26.5034C21.2772 25.0693 21.6775 23.7047 22.0397 22.4698C22.6238 20.4787 23.109 18.8247 24.1552 17.7597C25.8502 16.0343 29.6704 14.5717 34.4324 14.9218C34.4848 17.0509 34.1527 21.9367 32.4042 24.4474C31.2349 26.1264 29.3149 26.6141 27.1468 27.1648C25.2626 27.6434 23.191 28.1696 21.262 29.5668C21.089 29.6921 20.9173 29.816 20.747 29.9389C17.107 32.566 14.1048 34.7326 12.855 40.0327L11.6388 39.6885Z" fill="#E2E2E2"/>
</svg>
