<svg width="143" height="191" viewBox="0 0 143 191" fill="none" xmlns="http://www.w3.org/2000/svg">
<g filter="url(#filter0_i)">
<path d="M53.902 15.5632C54.4937 13.2974 56.5337 8.47703 59.9606 7.32236C64.2442 5.87902 65.3527 6.08717 65.5057 7.29514C65.5896 7.95694 65.0457 9.204 64.5363 10.372C64.1159 11.336 63.7189 12.2461 63.7177 12.729C63.7172 12.9198 63.7408 13.1359 63.7659 13.365C63.8808 14.4174 64.0255 15.7423 62.0005 16.1421C62.8621 16.5413 64.3985 17.7352 63.652 19.3172C64.0372 19.6823 64.4919 20.5006 63.2292 20.8523C63.3954 21.1895 63.6257 21.9524 63.2173 22.3063C62.809 22.6602 62.2855 22.6326 62.0748 22.5745L62.097 23.5522C62.1074 23.7494 62.2629 24.2196 62.801 24.5233C62.8959 24.5768 63.0106 24.6358 63.1355 24.7001C63.8961 25.0914 65.0374 25.6786 64.4146 26.425C63.8115 27.1477 63.5353 26.6835 63.1063 25.9623C63.0195 25.8165 62.9265 25.6601 62.8232 25.5009C62.8843 25.1615 62.5762 24.4225 60.855 24.1816C60.6185 24.5699 59.9014 25.1042 58.9246 24.1357C58.5293 24.5126 57.5537 25.0211 56.8136 24.0401C56.0734 23.059 54.7621 19.8481 54.199 18.3652C54.3756 18.8997 54.6418 20.0028 54.2931 20.1399L53.2477 14.4115C53.3463 14.4063 53.5932 14.2152 53.7922 13.4928C53.9911 12.7704 53.9432 12.239 53.8943 12.0636C54.0771 12.3407 54.2578 13.213 53.5186 14.4861C53.6473 14.4892 53.9041 14.7089 53.902 15.5632Z" fill="#E5E2E2"/>
<path d="M52.5062 16.025C51.1481 14.1172 47.5285 10.3362 43.9149 10.4745C39.398 10.6473 38.4358 11.2358 38.722 12.4193C38.8787 13.0677 39.8302 14.0401 40.7214 14.9509C41.4569 15.7026 42.1513 16.4123 42.324 16.8633C42.3922 17.0415 42.447 17.2519 42.505 17.4749C42.7714 18.4995 43.107 19.7894 45.1419 19.4435C44.4783 20.1228 43.4663 21.7847 44.7263 22.9982C44.496 23.4764 44.3617 24.4028 45.6669 24.2829C45.6314 24.6572 45.6872 25.4522 46.1946 25.6379C46.7021 25.8236 47.1816 25.6118 47.3579 25.4827L47.6845 26.4044C47.7448 26.5924 47.7666 27.0872 47.3715 27.5623C47.3018 27.6461 47.2156 27.7419 47.1216 27.8464C46.5497 28.4824 45.6915 29.4368 46.5388 29.9132C47.3594 30.3745 47.4526 29.8425 47.5974 29.0159C47.6267 28.8487 47.6581 28.6695 47.6981 28.484C47.5204 28.1885 47.5458 27.3882 49.0692 26.5515C49.4281 26.8304 50.2883 27.0751 50.8573 25.8227C51.3607 26.0345 52.4532 26.1633 52.7965 24.9832C53.1398 23.8032 53.2247 20.3358 53.2242 18.7497C53.249 19.312 53.3921 20.4377 53.7668 20.442L52.7086 14.7159C52.6146 14.7461 52.3159 14.6552 51.8732 14.0506C51.4306 13.446 51.2866 12.9323 51.27 12.751C51.1976 13.0749 51.3386 13.9545 52.4819 14.8819C52.3627 14.9305 52.2007 15.2271 52.5062 16.025Z" fill="#E5E2E2"/>
</g>
<g filter="url(#filter1_d)">
<path fill-rule="evenodd" clip-rule="evenodd" d="M72.5172 182.457C75.8134 170.866 81.32 151.121 82.8531 144.144C83.1822 142.646 83.5219 141.259 83.8411 139.956L83.8412 139.956C85.5742 132.882 86.7016 128.281 82.2322 121.799C77.4023 114.794 76.3168 114.595 72.1764 113.833C71.7799 113.76 71.3553 113.682 70.8967 113.592C65.6502 112.566 59.7026 111.268 60.533 104.958C60.8947 102.21 61.7901 100.354 62.5011 98.8812C63.4225 96.9721 64.034 95.705 62.772 93.9687C63.383 94.4732 65.5521 95.3264 69.3409 94.7035C74.0769 93.9248 77.0846 94.4865 79.348 96.9704C81.6114 99.4543 81.31 103.357 80.7379 107.958C80.2373 111.983 80.4949 112.457 81.8111 114.878L81.8113 114.879C81.9994 115.225 82.2092 115.611 82.4415 116.053C84.2989 119.585 86.6945 124.331 86.7468 125.757C87.7104 120.839 89.6956 110.019 89.927 106.09C88.5011 102.658 84.9974 94.978 82.3896 91.7177C80.3625 89.1834 78.8173 87.208 77.9576 86.0969C77.4435 86.1268 76.9148 86.0497 76.4032 85.8516C74.4901 85.1108 73.5396 82.9594 74.2804 81.0462C75.0211 79.1331 77.1725 78.1826 79.0857 78.9233C80.9989 79.6641 81.9493 81.8155 81.2086 83.7287C81.1256 83.9431 81.0248 84.1455 80.9087 84.3347L85.8155 92.2403L90.6344 101.139C91.4176 96.6867 92.8851 87.1003 92.4891 84.3748C91.994 80.968 89.1433 73.233 82.4668 72.2555C77.1256 71.4736 73.1619 73.2077 71.8477 74.1725C70.1603 75.0598 65.8852 76.2447 62.2834 73.8856C57.9631 71.0559 57.7036 69.2434 57.2522 66.0913C57.2332 65.9585 57.2139 65.8233 57.1939 65.6856L57.1558 65.4234C56.6663 62.0439 56.0204 57.585 53.5897 56.2522C54.5697 56.4977 57.1239 56.4953 59.5005 54.5218C62.4713 52.055 66.8599 48.5294 72.4293 50.2839C77.9987 52.0383 79.4901 57.0366 81.1138 64.2966C84.4556 67.466 91.467 74.9364 92.7782 79.4631C93.173 72.7167 93.4355 57.774 91.3271 51.9741C91.3282 51.1038 90.1278 48.6161 85.318 45.6286C79.3058 41.8942 76.2368 36.285 76.3352 32.907C76.4337 29.529 78.1252 25.1602 83.7285 21.1003C89.3318 17.0403 90.7096 15.5643 90.8203 13.1958C91.0704 14.6323 93.0431 18.0754 98.9329 20.3558C106.295 23.2063 108.38 28.2335 108.485 31.0872C108.589 33.941 107.491 38.3386 104.357 41.7471C103.767 42.3898 103.127 43.028 102.477 43.6774L102.477 43.6775C99.6767 46.4726 96.6677 49.4763 96.4106 53.9423C96.1571 58.3454 96.1798 62.6947 96.2229 64.319C97.618 61.8348 100.771 56.9033 102.998 55.5598C102.781 54.8069 102.799 53.9796 103.104 53.1926C103.845 51.2794 105.996 50.329 107.909 51.0697C109.822 51.8105 110.773 53.9619 110.032 55.8751C109.291 57.7883 107.14 58.7387 105.227 57.998C105.14 57.9644 105.056 57.928 104.973 57.8888C101.841 60.3242 96.4417 65.6864 96.1612 70.7255C96.1051 71.7337 96.0464 72.855 95.9844 74.0397L95.9844 74.0403C95.635 80.7143 95.1805 89.3975 94.491 91.1784C95.4598 89.544 98.4208 85.5059 102.515 82.429C106.609 79.3521 109.5 73.4115 110.434 70.8259C110.786 69.2209 112.264 65.7872 115.351 64.8928C118.758 63.9059 120.912 64.9391 123.253 66.0622L123.253 66.0624C123.564 66.2115 123.878 66.3622 124.199 66.5099C124.934 66.8484 125.687 67.2518 126.437 67.6539L126.438 67.654L126.438 67.6541C128.483 68.7496 130.508 69.8346 132.087 69.5641C131.331 70.4768 129.65 72.8402 128.978 74.9915C128.823 75.4887 128.681 76.1286 128.522 76.8459L128.522 76.8461C127.823 80.0083 126.79 84.675 122.787 85.2544C120.385 85.6019 117.927 84.7262 115.562 83.8838C113.091 83.0035 110.722 82.1595 108.625 82.7854C104.523 84.0103 94.6263 90.8289 93.7282 97.3134L92.1104 107.739C94.1402 106.315 98.5453 103.197 99.928 102.125C101.656 100.785 103.332 98.0177 104.969 94.8332C106.605 91.6486 108.401 90.1336 111.907 91.491C113.354 92.0513 114.656 92.8978 115.862 93.6823L115.862 93.6823C117.579 94.7983 119.102 95.7888 120.576 95.6513C120.207 95.9103 119.293 96.8827 118.589 98.7001C118.385 99.228 118.21 99.8758 118.023 100.569C117.405 102.861 116.653 105.652 114.25 106.264C111.767 106.896 110.829 106.484 109.149 105.744C108.71 105.551 108.221 105.336 107.641 105.111C104.836 104.026 101.908 104.299 99.3037 105.3C96.6988 106.301 92.4056 109.059 91.2923 115.059C90.1789 121.058 86.5159 138.328 84.7259 146.075C83.4072 151.782 77.951 171.59 74.772 182.995L72.5172 182.457Z" fill="#CBCBCB"/>
</g>
<path fill-rule="evenodd" clip-rule="evenodd" d="M60.9369 179.697C60.6885 174.15 60.8555 168.131 61.7706 166.081C62.0665 165.418 62.3691 164.677 62.6962 163.877C64.7382 158.879 67.7318 151.552 75.9852 146.28C79.0716 144.308 81.8396 142.768 84.2681 141.416C89.3738 138.575 92.9789 136.568 94.8874 133.149C97.7036 128.104 99.0914 120.154 97.8815 107.744C92.5356 108.026 79.9587 111.034 72.4186 120.809C71.9115 121.651 70.923 124.375 71.0253 128.534C71.1531 133.733 70.7085 143.243 67.6829 148.972C65.2624 153.555 63.2244 157.752 62.508 159.277C61.7107 160.578 60.052 162.414 59.7955 159.344C59.7818 159.179 59.7659 158.994 59.7483 158.789C59.356 154.224 58.1388 140.056 61.8521 132.604C62.8618 130.578 64.1739 128.392 65.5428 126.11C69.4342 119.625 73.7851 112.374 72.9559 105.869C71.8349 97.0752 64.9573 84.1261 57.3757 79.3366C52.6424 83.0718 42.8027 93.7632 41.3102 106.647C41.2848 108.683 42.2677 114.313 46.4016 120.545C51.5691 128.334 53.2181 131.007 54.2557 136.41C55.0857 140.732 56.4111 153.547 56.857 159.416C56.8113 160.624 56.4761 162.321 54.5966 159.472C54.1292 158.763 53.553 157.995 52.9135 157.142C50.3386 153.709 46.7392 148.909 45.0992 141.159C44.3155 137.455 43.9689 134.006 43.6552 130.884C43.1494 125.851 42.7293 121.67 40.7006 118.649C37.4138 113.754 28.9169 108.535 17.3499 107.236C16.2685 112.314 14.8712 124.17 17.9335 130.97C19.9815 135.518 24.3631 137.549 29.3107 139.841C33.6106 141.834 38.3381 144.025 42.3329 148.238C42.6912 148.616 43.0469 148.99 43.3998 149.361C51.2882 157.653 57.7308 164.425 57.8275 178.956L60.9369 179.697Z" fill="#E2E2E2"/>
<defs>
<filter id="filter0_i" x="38.6758" y="6.31335" width="26.8385" height="27.7706" filterUnits="userSpaceOnUse" color-interpolation-filters="sRGB">
<feFlood flood-opacity="0" result="BackgroundImageFix"/>
<feBlend mode="normal" in="SourceGraphic" in2="BackgroundImageFix" result="shape"/>
<feColorMatrix in="SourceAlpha" type="matrix" values="0 0 0 0 0 0 0 0 0 0 0 0 0 0 0 0 0 0 127 0" result="hardAlpha"/>
<feOffset dy="4"/>
<feGaussianBlur stdDeviation="4"/>
<feComposite in2="hardAlpha" operator="arithmetic" k2="-1" k3="1"/>
<feColorMatrix type="matrix" values="0 0 0 0 0 0 0 0 0 0 0 0 0 0 0 0 0 0 0.25 0"/>
<feBlend mode="normal" in2="shape" result="effect1_innerShadow"/>
</filter>
<filter id="filter1_d" x="50.5898" y="13.1958" width="86.4975" height="177.799" filterUnits="userSpaceOnUse" color-interpolation-filters="sRGB">
<feFlood flood-opacity="0" result="BackgroundImageFix"/>
<feColorMatrix in="SourceAlpha" type="matrix" values="0 0 0 0 0 0 0 0 0 0 0 0 0 0 0 0 0 0 127 0" result="hardAlpha"/>
<feOffset dx="1" dy="4"/>
<feGaussianBlur stdDeviation="2"/>
<feColorMatrix type="matrix" values="0 0 0 0 0 0 0 0 0 0.443981 0 0 0 0 0.570833 0 0 0 0.12 0"/>
<feBlend mode="normal" in2="BackgroundImageFix" result="effect1_dropShadow"/>
<feBlend mode="normal" in="SourceGraphic" in2="effect1_dropShadow" result="shape"/>
</filter>
</defs>
</svg>
