<svg width="71" height="84" viewBox="0 0 71 84" fill="none" xmlns="http://www.w3.org/2000/svg">
<path fill-rule="evenodd" clip-rule="evenodd" d="M70.8651 75.2498C70.6703 75.1361 70.4756 75.0215 70.2811 74.906C66.2639 72.623 57.4702 67.2135 54.4327 63.8385C53.7508 63.4057 52.9377 61.2964 55.1413 56.3219C57.8958 50.1038 53.2472 43.5704 51.0681 41.0741C48.499 43.6181 44.2221 50.6789 47.667 58.5705C44.4761 55.5248 37.6498 48.6435 35.8721 45.4837C38.9248 40.5217 43.304 29.182 36.3994 23.5196C33.4862 25.4625 28.3944 31.6791 31.3331 41.0027C28.315 37.7305 21.7944 30.0367 19.8569 25.4396C20.0819 20.3411 18.0483 9.61144 8.11414 7.48094C6.35238 11.9404 5.84244 22.097 17.8968 27.0481C18.9293 28.8514 21.3359 32.7513 22.7023 33.9247C18.9627 31.644 9.95527 28.7288 3.84282 35.3134C6.90689 37.9306 15.1293 42.1218 23.5066 37.9487C23.9871 37.639 25.5771 37.76 28.0931 40.7205C31.2381 44.4211 37.3711 51.4792 39.2362 53.2891C35.3459 51.4346 26.4016 49.4431 21.7469 56.3128C25.328 59.3046 34.2838 63.6783 41.4582 57.2389C42.7253 57.5909 45.7135 58.743 47.5291 60.5354C47.5913 60.5968 47.6692 60.6747 47.7627 60.7683C49.4208 62.4283 56.0045 69.0195 67.5235 75.7314L70.8651 75.2498Z" fill="#E2E2E2"/>
</svg>
