<svg width="95" height="112" viewBox="0 0 95 112" fill="none" xmlns="http://www.w3.org/2000/svg">
<path fill-rule="evenodd" clip-rule="evenodd" d="M16.1856 111.414C16.3845 111.195 16.583 110.974 16.7808 110.752C20.9074 106.305 29.7775 96.054 32.2455 90.627C32.9281 89.8154 33.1117 86.853 28.3852 81.4964C22.4769 74.8008 25.7127 64.7821 27.4536 60.7948C31.6764 62.9637 39.824 70.1122 38.6325 81.3552C41.4229 76.2798 47.2477 64.9642 48.2234 60.305C42.4387 55.2999 32.4704 42.8346 38.8754 33.0141C43.2913 34.2943 52.1252 40.0636 52.1338 52.8992C54.6182 47.6085 59.7389 35.3966 60.3463 28.8746C58.0479 22.5802 56.3498 8.34213 67.9448 1.74525C71.9145 6.63166 76.5704 19.1462 63.4366 30.1131C62.8572 32.7793 61.3867 38.614 60.14 40.6236C63.92 36.2889 74.0443 29.0761 84.3017 34.9024C81.5007 39.3912 72.8639 47.891 60.7248 45.9797C60.0007 45.7822 58.0578 46.5625 56.0787 51.2643C53.605 57.1415 48.7182 68.4043 47.099 71.4081C51.2362 67.5474 61.6467 61.516 70.1918 68.2759C66.8916 73.4382 57.4089 82.4566 45.8793 77.2321C44.4321 78.174 41.1465 80.7985 39.5823 83.7608C39.5288 83.8622 39.4621 83.9906 39.3821 84.1448C37.9627 86.8789 32.327 97.7354 20.5599 110.695L16.1856 111.414Z" fill="#E2E2E2"/>
</svg>
